<svg xmlns="http://www.w3.org/2000/svg" fill="none" viewBox="0 0 25 24" width="24" height="24"><path fill="#ffffff" fill-rule="evenodd" d="M16.2 4.563a8.315 8.315 0 0 0-3.687-.863 8.315 8.315 0 0 0-7.217 4.198 8.294 8.294 0 0 0 .08 8.342c.141.238.198.516.16.79l-.27 1.88v.08a.28.28 0 0 0 .28.24l1.922-.27h.17c.218 0 .432.06.62.17a8.315 8.315 0 0 0 10.452-1.603 8.299 8.299 0 0 0 1.959-7.103A8.295 8.295 0 0 0 16.2 4.563Zm-8.473-.774A9.517 9.517 0 0 1 12.513 2.5a9.518 9.518 0 0 1 7.55 3.753 9.496 9.496 0 0 1-4.017 14.558 9.518 9.518 0 0 1-8.408-.641l-1.882.27h-.21a1.483 1.483 0 0 1-1.472-1.69l.27-1.88A9.493 9.493 0 0 1 7.728 3.789ZM7.739 10a.6.6 0 0 1 .6-.6h6.347a.6.6 0 1 1 0 1.2H8.339a.6.6 0 0 1-.6-.6Zm0 3.5a.6.6 0 0 1 .6-.6h2.933a.6.6 0 1 1 0 1.2H8.34a.6.6 0 0 1-.6-.6Z" clip-rule="evenodd"></path></svg>